<?xml version="1.0" standalone="no"?>
<!DOCTYPE svg PUBLIC "-//W3C//DTD SVG 20010904//EN"
 "http://www.w3.org/TR/2001/REC-SVG-20010904/DTD/svg10.dtd">
<svg version="1.0" xmlns="http://www.w3.org/2000/svg"
 width="249.000000pt" height="68.000000pt" viewBox="0 0 249.000000 68.000000"
 preserveAspectRatio="xMidYMid meet">

<g transform="translate(0.000000,68.000000) scale(0.100000,-0.100000)"
fill="#000000" stroke="none">
<path d="M173 489 c-39 -12 -41 -27 -9 -77 13 -20 27 -58 30 -84 15 -100 111
-157 195 -114 38 20 60 56 71 118 6 28 21 66 35 84 32 42 31 52 -2 65 -38 15
-280 21 -320 8z"/>
<path d="M2000 340 c0 -64 3 -80 15 -80 9 0 15 9 15 22 l0 21 23 -21 c13 -12
31 -22 40 -22 16 0 15 3 -4 29 l-22 29 22 31 c22 31 22 31 2 31 -12 0 -26 -9
-33 -20 -19 -30 -28 -24 -28 20 0 29 -4 40 -15 40 -12 0 -15 -16 -15 -80z"/>
<path d="M851 384 c-43 -54 -10 -124 58 -124 42 0 71 24 71 58 0 19 -6 22 -40
22 -22 0 -40 -4 -40 -10 0 -5 12 -10 26 -10 33 0 27 -24 -8 -28 -30 -4 -51 19
-46 49 4 32 33 47 58 31 23 -14 50 -16 50 -4 0 20 -39 42 -73 42 -27 0 -41 -7
-56 -26z"/>
<path d="M1570 335 l0 -75 55 0 c43 0 56 4 65 19 11 22 4 51 -13 51 -7 0 -7 4
1 12 17 17 15 55 -4 62 -9 3 -36 6 -60 6 l-44 0 0 -75z m85 30 c0 -5 -10 -11
-22 -13 -16 -2 -23 2 -23 13 0 11 7 15 23 13 12 -2 22 -7 22 -13z m5 -60 c0
-9 -9 -15 -25 -15 -16 0 -25 6 -25 15 0 9 9 15 25 15 16 0 25 -6 25 -15z"/>
<path d="M2280 395 c0 -8 -4 -15 -10 -15 -5 0 -10 -7 -10 -15 0 -8 4 -15 9
-15 6 0 11 -19 13 -42 3 -39 6 -43 31 -46 19 -2 27 1 27 12 0 9 -7 16 -15 16
-10 0 -15 10 -15 30 0 20 5 30 15 30 8 0 15 7 15 15 0 8 -7 15 -15 15 -8 0
-15 7 -15 15 0 8 -7 15 -15 15 -8 0 -15 -7 -15 -15z"/>
<path d="M1010 320 c0 -47 3 -60 15 -60 9 0 15 9 15 24 0 35 10 56 26 56 8 0
14 9 14 20 0 23 -10 26 -28 8 -9 -9 -12 -9 -12 0 0 7 -7 12 -15 12 -12 0 -15
-13 -15 -60z"/>
<path d="M1116 364 c-19 -18 -21 -75 -4 -92 16 -16 70 -16 86 0 21 21 13 29
-22 23 -20 -4 -36 -2 -40 4 -5 7 8 11 38 11 50 0 57 10 30 48 -18 26 -65 30
-88 6z m64 -24 c0 -5 -12 -10 -26 -10 -14 0 -23 4 -19 10 3 6 15 10 26 10 10
0 19 -4 19 -10z"/>
<path d="M1246 358 c-20 -28 -20 -48 0 -76 24 -34 104 -26 104 11 0 5 -18 6
-40 2 -26 -4 -40 -3 -40 4 0 6 18 11 39 11 47 0 54 8 38 41 -18 35 -79 39
-101 7z m69 -18 c4 -6 -5 -10 -19 -10 -14 0 -26 5 -26 10 0 6 9 10 19 10 11 0
23 -4 26 -10z"/>
<path d="M1380 318 c0 -45 3 -58 15 -58 10 0 15 10 15 29 0 42 10 61 31 61 16
0 19 -8 19 -45 0 -38 3 -45 20 -45 17 0 20 7 20 41 0 65 -12 78 -70 77 l-50
-1 0 -59z"/>
<path d="M1724 355 c-16 -24 -12 -56 8 -82 5 -7 31 -11 59 -11 l49 1 0 57 0
57 -50 1 c-43 1 -53 -3 -66 -23z m75 -19 c15 -18 3 -46 -20 -46 -22 0 -34 22
-25 45 7 19 30 19 45 1z"/>
<path d="M1880 365 c-18 -21 -5 -44 31 -57 19 -7 27 -14 21 -20 -6 -6 -17 -5
-30 3 -12 7 -24 10 -28 6 -12 -12 18 -37 45 -37 70 1 68 52 -2 74 -10 3 -16
10 -12 16 4 6 15 5 30 -2 30 -13 43 -5 25 17 -16 19 -64 19 -80 0z"/>
<path d="M2146 364 c-23 -22 -21 -81 3 -94 26 -14 64 -13 79 2 21 21 13 29
-22 23 -20 -4 -36 -2 -40 4 -5 7 8 11 38 11 50 0 57 10 30 48 -18 26 -65 30
-88 6z m64 -24 c0 -5 -12 -10 -26 -10 -14 0 -23 4 -19 10 3 6 15 10 26 10 10
0 19 -4 19 -10z"/>
</g>
</svg>
